<svg width="96" height="96" viewBox="0 0 96 96" fill="none" xmlns="http://www.w3.org/2000/svg">
  <circle cx="48" cy="48" r="48" fill="#176C55"/>
  <path d="M26 39.5C26 34.2533 30.2533 30 35.5 30H60.5C65.7467 30 70 34.2533 70 39.5V41H26V39.5Z" fill="#F6F1E4"/>
  <path d="M29 44H67V62.5C67 67.7467 62.7467 72 57.5 72H38.5C33.2533 72 29 67.7467 29 62.5V44Z" fill="#F6F1E4"/>
  <path d="M39 48C39 43.5817 42.5817 40 47 40H49C53.4183 40 57 43.5817 57 48V49.5H53V48C53 45.7909 51.2091 44 49 44H47C44.7909 44 43 45.7909 43 48V49.5H39V48Z" fill="#176C55"/>
  <circle cx="48" cy="56" r="4" fill="#176C55"/>
</svg>
